# xmcd
#
# Track frame offsets:
#	150
#	18911
#	33937
#	50328
#	68196
#	83958
#	101881
#	118746
#
# Disc length: 1825 seconds
#
# Revision: 4293703644
# Processed by: cddbd v1.5.2PL0 Copyright (c) Steve Scherf et al.
# Submitted via: EZCDAudioConverter 8.0.2.1
#
DISCID=64071f08
DTITLE=Trà My Angel - Vol 03. Tra My Angle
DYEAR=2010
DGENRE=Indie - Alternative
TTITLE0=Một lần nhìn anh
TTITLE1=Một
TTITLE2=Vì em tin
TTITLE3=Nơi ta thuộc về nhau
TTITLE4=Ghi dấu tình yêu
TTITLE5=Bờ vai cho em
TTITLE6=Yêu thiết tha
TTITLE7=Tặng anh
EXTD=
EXTT0=
EXTT1=
EXTT2=
EXTT3=
EXTT4=
EXTT5=
EXTT6=
EXTT7=
PLAYORDER=
